<?xml version="1.0" encoding="UTF-8" standalone="no"?>
<svg
   xmlns:dc="http://purl.org/dc/elements/1.1/"
   xmlns:cc="http://creativecommons.org/ns#"
   xmlns:rdf="http://www.w3.org/1999/02/22-rdf-syntax-ns#"
   xmlns:svg="http://www.w3.org/2000/svg"
   xmlns="http://www.w3.org/2000/svg"
   xmlns:sodipodi="http://sodipodi.sourceforge.net/DTD/sodipodi-0.dtd"
   xmlns:inkscape="http://www.inkscape.org/namespaces/inkscape"
   id="master-artboard"
   viewBox="0 0 250 130"
   version="1.1"
   x="0px"
   y="0px"
   width="250"
   height="130"
   sodipodi:docname="langSkill.svg"
   inkscape:version="1.0.1 (3bc2e813f5, 2020-09-07)"
   inkscape:export-filename="D:\projects\flutter\flutter-ui-designs\assets\ma-skv\langSkill.png"
   inkscape:export-xdpi="393.216"
   inkscape:export-ydpi="393.216">
  <metadata
     id="metadata7730">
    <rdf:RDF>
      <cc:Work
         rdf:about="">
        <dc:format>image/svg+xml</dc:format>
        <dc:type
           rdf:resource="http://purl.org/dc/dcmitype/StillImage" />
        <dc:title></dc:title>
      </cc:Work>
    </rdf:RDF>
  </metadata>
  <defs
     id="defs7728" />
  <sodipodi:namedview
     pagecolor="#ffffff"
     bordercolor="#666666"
     borderopacity="1"
     objecttolerance="10"
     gridtolerance="10"
     guidetolerance="10"
     inkscape:pageopacity="0"
     inkscape:pageshadow="2"
     inkscape:window-width="1920"
     inkscape:window-height="1001"
     id="namedview7726"
     showgrid="false"
     inkscape:zoom="5.9865914"
     inkscape:cx="94.169773"
     inkscape:cy="65.897206"
     inkscape:window-x="-9"
     inkscape:window-y="-9"
     inkscape:window-maximized="1"
     inkscape:current-layer="master-artboard" />
  <rect
     id="ee-background"
     x="26"
     y="20"
     width="202.95355"
     height="92.058899"
     style="fill:#ffffff;fill-opacity:0" />
  <linearGradient
     id="SVGID_1_"
     gradientUnits="userSpaceOnUse"
     x1="-85.105103"
     y1="301.10559"
     x2="204.39391"
     y2="11.6066">
    <stop
       offset="4.838710e-02"
       style="stop-color:#A1B0B5"
       id="stop7660" />
    <stop
       offset="0.2679"
       style="stop-color:#C1CACE"
       id="stop7662" />
    <stop
       offset="0.5488"
       style="stop-color:#E3E7E9"
       id="stop7664" />
    <stop
       offset="0.7811"
       style="stop-color:#F7F9F9"
       id="stop7666" />
    <stop
       offset="0.9344"
       style="stop-color:#FFFFFF"
       id="stop7668" />
  </linearGradient>
  <path
     class="st1"
     d="M 225.03998,20.667842 H 74.039978 c -0.4,0 -0.8,0.1 -1.2,0.2 6.3,1 11.9,7.5 15.7,17.1 H 225.13998 c 1.9,0 3.4,-1.6 3.4,-3.5 v -10.2 c -0.1,-2 -1.6,-3.6 -3.5,-3.6 z"
     style="fill:#375869"
     id="path7671" />
  <path
     class="st2"
     d="M 207.93998,37.867842 H 71.139978 v 16.7 c 0.1,0.2 0.2,0.4 0.2,0.6 H 207.93998 c 1.9,0 3.4,-1.6 3.4,-3.5 v -10.3 c -0.1,-1.9 -1.6,-3.5 -3.4,-3.5 z"
     style="fill:#10445a"
     id="path7673" />
  <path
     class="st3"
     d="M 88.539978,41.067842 H 211.23998 c -0.2,-1.8 -1.6,-3.2 -3.3,-3.2 H 87.139978 c 0.5,1 0.9,2.1 1.4,3.2 z"
     style="fill:#023447"
     id="path7675" />
  <path
     class="st4"
     d="M 193.43998,55.067842 H 71.139978 v 17.3 H 193.43998 c 1.9,0 3.4,-1.6 3.4,-3.5 v -10.2 c 0,-2 -1.6,-3.6 -3.4,-3.6 z"
     style="fill:#7ea7b7"
     id="path7677" />
  <path
     class="st5"
     d="m 196.73998,57.967842 c -0.3,-1.6 -1.7,-2.9 -3.3,-2.9 H 71.139978 v 2.3 c 0.1,0.2 0.2,0.4 0.2,0.6 z"
     style="opacity:0.6;fill:#7ea7b6"
     id="path7679" />
  <path
     class="st6"
     d="M 179.93998,72.267842 H 71.139978 v 17.3 H 179.93998 c 1.9,0 3.4,-1.6 3.4,-3.5 v -10.3 c 0,-1.9 -1.5,-3.5 -3.4,-3.5 z"
     style="fill:#12334e"
     id="path7681" />
  <path
     class="st7"
     d="M 179.93998,72.267842 H 71.139978 v 2.8 H 183.23998 c -0.3,-1.6 -1.7,-2.8 -3.3,-2.8 z"
     style="fill:#062942"
     id="path7683" />
  <path
     class="st2"
     d="M 166.83998,89.267842 H 71.139978 v 17.299998 h 95.800002 c 1.9,0 3.4,-1.6 3.4,-3.5 V 92.867842 c -0.1,-2 -1.6,-3.6 -3.5,-3.6 z"
     style="fill:#10445a"
     id="path7685" />
  <path
     class="st8"
     d="M 166.83998,89.267842 H 71.139978 v 3.1 h 99.100002 c -0.2,-1.7 -1.6,-3.1 -3.4,-3.1 z"
     style="fill:#043649"
     id="path7687" />
  <path
     class="st9"
     d="M 118.53998,20.667842 H 74.039978 v 0.5 c 5.8,1.6 10.9,7.8 14.4,16.7 h -14.4 v 68.799998 h 49.200002 c 8.7,-11.099998 14,-24.999998 14,-40.199998 0,-17.9 -7.1,-34 -18.7,-45.8 z"
     style="opacity:0.3;fill:#231f20"
     id="path7689" />
  <radialGradient
     id="SVGID_4_"
     cx="77.449799"
     cy="78.869202"
     r="116.5611"
     gradientUnits="userSpaceOnUse"
     gradientTransform="translate(16.939978,-45.232158)">
    <stop
       offset="0"
       style="stop-color:#FFFFFF"
       id="stop7691" />
    <stop
       offset="0.18"
       style="stop-color:#FAFAFA"
       id="stop7693" />
    <stop
       offset="0.3863"
       style="stop-color:#ECECEC"
       id="stop7695" />
    <stop
       offset="0.6055"
       style="stop-color:#D5D5D5"
       id="stop7697" />
    <stop
       offset="0.8322"
       style="stop-color:#B6B6B6"
       id="stop7699" />
    <stop
       offset="1"
       style="stop-color:#999999"
       id="stop7701" />
  </radialGradient>
  <path
     d="M 117.83998,66.367842 A 45.599998,45.599998 0 0 1 72.239977,111.96784 45.599998,45.599998 0 0 1 26.639979,66.367842 a 45.599998,45.599998 0 0 1 45.599998,-45.6 45.599998,45.599998 0 0 1 45.600003,45.6 z"
     class="st208"
     style="fill:url(#SVGID_4_)"
     id="path7704" />
  <radialGradient
     id="SVGID_5_"
     cx="21.925301"
     cy="146.4384"
     r="135.2852"
     gradientUnits="userSpaceOnUse"
     gradientTransform="translate(16.939978,-45.232158)">
    <stop
       offset="0"
       style="stop-color:#FFFFFF"
       id="stop7706" />
    <stop
       offset="0.2518"
       style="stop-color:#FCFCFC"
       id="stop7708" />
    <stop
       offset="0.4407"
       style="stop-color:#F2F2F2"
       id="stop7710" />
    <stop
       offset="0.6091"
       style="stop-color:#E2E2E2"
       id="stop7712" />
    <stop
       offset="0.7655"
       style="stop-color:#CBCBCB"
       id="stop7714" />
    <stop
       offset="0.9122"
       style="stop-color:#AEAEAE"
       id="stop7716" />
    <stop
       offset="1"
       style="stop-color:#999999"
       id="stop7718" />
  </radialGradient>
  <path
     d="M 117.13998,66.367842 A 44.900002,44.900002 0 0 1 72.239977,111.26784 44.900002,44.900002 0 0 1 27.339976,66.367842 44.900002,44.900002 0 0 1 72.239977,21.467839 44.900002,44.900002 0 0 1 117.13998,66.367842 Z"
     class="st209"
     style="fill:url(#SVGID_5_)"
     id="path7721" />
  <path
     d="m 111.73998,66.367842 a 39.5,39.5 0 0 1 -39.500003,39.499998 39.5,39.5 0 0 1 -39.5,-39.499998 39.5,39.5 0 0 1 39.5,-39.500002 39.5,39.5 0 0 1 39.500003,39.500002 z"
     class="st2"
     style="fill:#10445a"
     id="path7723" />
  <text
     xml:space="preserve"
     style="font-style:normal;font-weight:normal;font-size:18.6667px;line-height:0;font-family:sans-serif;fill:#ffcc00;fill-opacity:1;stroke:none;"
     x="105.84506"
     y="35.706238"
     id="text7734"
     inkscape:export-xdpi="96"
     inkscape:export-ydpi="96"><tspan
       sodipodi:role="line"
       id="tspan7732"
       x="105.84506"
       y="35.706238"
       style="font-style:normal;font-variant:normal;font-weight:normal;font-stretch:normal;font-size:18.6667px;line-height:0.9;font-family:Papyrus;-inkscape-font-specification:Papyrus;fill:#ffcc00;"> 1</tspan><tspan
       style="font-style:normal;font-variant:normal;font-weight:normal;font-stretch:normal;font-size:18.6667px;line-height:0.9;font-family:Papyrus;-inkscape-font-specification:Papyrus;fill:#ffcc00;"
       sodipodi:role="line"
       id="tspan7786"
       x="105.84506"
       y="52.506268">   2</tspan><tspan
       sodipodi:role="line"
       x="105.84506"
       y="69.306297"
       style="font-style:normal;font-variant:normal;font-weight:normal;font-stretch:normal;font-size:18.6667px;line-height:0.9;font-family:Papyrus;-inkscape-font-specification:Papyrus;fill:#ffcc00;"
       id="tspan7738">    3</tspan><tspan
       sodipodi:role="line"
       x="105.84506"
       y="86.106331"
       style="font-style:normal;font-variant:normal;font-weight:normal;font-stretch:normal;font-size:18.6667px;line-height:0.9;font-family:Papyrus;-inkscape-font-specification:Papyrus;fill:#ffcc00;"
       id="tspan7790">   4</tspan><tspan
       sodipodi:role="line"
       x="105.84506"
       y="102.90636"
       style="font-style:normal;font-variant:normal;font-weight:normal;font-stretch:normal;font-size:18.6667px;line-height:0.9;font-family:Papyrus;-inkscape-font-specification:Papyrus;fill:#ffcc00;"
       id="tspan7794"> 5</tspan></text>
</svg>
