<?xml version="1.0" encoding="UTF-8" standalone="no"?>
<svg
   xmlns:dc="http://purl.org/dc/elements/1.1/"
   xmlns:cc="http://creativecommons.org/ns#"
   xmlns:rdf="http://www.w3.org/1999/02/22-rdf-syntax-ns#"
   xmlns:svg="http://www.w3.org/2000/svg"
   xmlns="http://www.w3.org/2000/svg"
   xmlns:sodipodi="http://sodipodi.sourceforge.net/DTD/sodipodi-0.dtd"
   xmlns:inkscape="http://www.inkscape.org/namespaces/inkscape"
   viewBox="0 0 666.66669 666.66669"
   height="666.66669"
   width="666.66669"
   xml:space="preserve"
   id="svg2"
   version="1.1"
   sodipodi:docname="mainCirc.svg"
   inkscape:version="1.0.1 (3bc2e813f5, 2020-09-07)"
   inkscape:export-filename="D:\projects\flutter\flutter-ui-designs\assets\ma-skv\mainCirc.png"
   inkscape:export-xdpi="96"
   inkscape:export-ydpi="96"><sodipodi:namedview
     pagecolor="#ffffff"
     bordercolor="#666666"
     borderopacity="1"
     objecttolerance="10"
     gridtolerance="10"
     guidetolerance="10"
     inkscape:pageopacity="0"
     inkscape:pageshadow="2"
     inkscape:window-width="1920"
     inkscape:window-height="1001"
     id="namedview387"
     showgrid="false"
     inkscape:zoom="1.245"
     inkscape:cx="175.50201"
     inkscape:cy="162.4498"
     inkscape:window-x="-9"
     inkscape:window-y="-9"
     inkscape:window-maximized="1"
     inkscape:current-layer="g12" /><metadata
     id="metadata8"><rdf:RDF><cc:Work
         rdf:about=""><dc:format>image/svg+xml</dc:format><dc:type
           rdf:resource="http://purl.org/dc/dcmitype/StillImage" /><dc:title></dc:title></cc:Work></rdf:RDF></metadata><defs
     id="defs6"><clipPath
       id="clipPath20"
       clipPathUnits="userSpaceOnUse"><path
         id="path18"
         d="M 5000,0 H 0 V 5000 H 5000 V 0 M 338.328,250.359 c 0,-100.609 1020.462,-182.1988 2279.302,-182.1988 1258.8,0 2279.26,81.5898 2279.26,182.1988 v 0 0 c 0,100.633 -1020.46,182.2 -2279.26,182.2 -1258.84,0 -2279.302,-81.567 -2279.302,-182.2 v 0 0" /></clipPath><linearGradient
       id="linearGradient26"
       spreadMethod="pad"
       gradientTransform="matrix(-1840,-5040,-5040,1840,3420.63,5021.68)"
       gradientUnits="userSpaceOnUse"
       y2="0"
       x2="1"
       y1="0"
       x1="0"><stop
         id="stop22"
         offset="0"
         style="stop-opacity:1;stop-color:#c5c7c6" /><stop
         id="stop24"
         offset="1"
         style="stop-opacity:1;stop-color:#ffffff" /></linearGradient><clipPath
       id="clipPath36"
       clipPathUnits="userSpaceOnUse"><path
         id="path34"
         d="m 2617.63,68.1602 c -1258.84,0 -2279.302,81.5898 -2279.302,182.1988 0,100.633 1020.462,182.2 2279.302,182.2 1258.8,0 2279.26,-81.567 2279.26,-182.2 0,-100.609 -1020.46,-182.1988 -2279.26,-182.1988" /></clipPath><clipPath
       id="clipPath48"
       clipPathUnits="userSpaceOnUse"><path
         id="path46"
         d="m 2330.25,4287.64 c 0,0 -249.21,202.35 -580.25,226.28 -547.76,39.6 -839.605,-266.04 -622.56,-552.29 146.25,-192.89 390.28,-110.1 481.39,-31.65 192.2,165.47 354.66,460.25 721.42,357.66 z" /></clipPath><linearGradient
       id="linearGradient54"
       spreadMethod="pad"
       gradientTransform="matrix(439.661,470.513,470.513,-439.661,1328.49,3882.86)"
       gradientUnits="userSpaceOnUse"
       y2="0"
       x2="1"
       y1="0"
       x1="0"><stop
         id="stop50"
         offset="0"
         style="stop-opacity:1;stop-color:#f36917" /><stop
         id="stop52"
         offset="1"
         style="stop-opacity:1;stop-color:#f1481d" /></linearGradient><clipPath
       id="clipPath64"
       clipPathUnits="userSpaceOnUse"><path
         id="path62"
         d="m 1164.41,4371.2 c 0,0 498.07,402.16 1151.91,449.42 1081.88,78.21 1658.25,-525.45 1229.6,-1090.81 -288.87,-380.98 -770.84,-217.44 -950.78,-62.52 -379.6,326.84 -706.34,906.5 -1430.73,703.91 z" /></clipPath><linearGradient
       id="linearGradient70"
       spreadMethod="pad"
       gradientTransform="matrix(2523.9,0,0,-2523.9,1164.41,4161.67)"
       gradientUnits="userSpaceOnUse"
       y2="0"
       x2="1"
       y1="0"
       x1="0"><stop
         id="stop66"
         offset="0"
         style="stop-opacity:1;stop-color:#f36917" /><stop
         id="stop68"
         offset="1"
         style="stop-opacity:1;stop-color:#f1481d" /></linearGradient><clipPath
       id="clipPath80"
       clipPathUnits="userSpaceOnUse"><path
         id="path78"
         d="m 1179.26,4377.46 c 680.51,246.48 1038.93,-381.55 1418.54,-708.38 130.33,-112.23 407.65,-228.92 666.78,-139.88 -266.37,-112.97 -575.15,6.83 -711.75,122.92 -379.55,322.52 -811.68,943.96 -1370.52,698.41 -81.2,-35.67 -171.31,-215.32 -39.93,-384.61 64.03,-82.52 137.7,-119.67 217.08,-122.74 -87.22,-3.21 -169.6,32.29 -242.15,122.46 -115.75,143.85 -60.03,297.79 22.28,382.21 11.62,11.92 24.28,24.04 39.67,29.61 z" /></clipPath><linearGradient
       id="linearGradient86"
       spreadMethod="pad"
       gradientTransform="matrix(2213.15,0,0,-2213.15,1051.43,3958.65)"
       gradientUnits="userSpaceOnUse"
       y2="0"
       x2="1"
       y1="0"
       x1="0"><stop
         id="stop82"
         offset="0"
         style="stop-opacity:1;stop-color:#f46e16" /><stop
         id="stop84"
         offset="1"
         style="stop-opacity:1;stop-color:#f36917" /></linearGradient><clipPath
       id="clipPath96"
       clipPathUnits="userSpaceOnUse"><path
         id="path94"
         d="m 4091.44,2831.28 c 0,0 202.34,249.21 226.27,580.25 39.58,547.78 -266.05,839.61 -552.3,622.57 -192.89,-146.25 -110.1,-390.29 -31.66,-481.4 165.49,-192.19 460.24,-354.65 357.69,-721.42 z" /></clipPath><linearGradient
       id="linearGradient102"
       spreadMethod="pad"
       gradientTransform="matrix(470.513,-439.661,-439.661,-470.513,3686.63,3833.04)"
       gradientUnits="userSpaceOnUse"
       y2="0"
       x2="1"
       y1="0"
       x1="0"><stop
         id="stop98"
         offset="0"
         style="stop-opacity:1;stop-color:#e6de21" /><stop
         id="stop100"
         offset="1"
         style="stop-opacity:1;stop-color:#f2a70e" /></linearGradient><clipPath
       id="clipPath112"
       clipPathUnits="userSpaceOnUse"><path
         id="path110"
         d="m 4174.98,3997.13 c 0,0 402.17,-498.07 449.42,-1151.92 78.21,-1081.87 -525.44,-1658.25 -1090.82,-1229.59 -380.96,288.87 -217.44,770.84 -62.51,950.78 326.84,379.59 906.49,706.34 703.91,1430.73 z" /></clipPath><linearGradient
       id="linearGradient118"
       spreadMethod="pad"
       gradientTransform="matrix(1303.54,0,0,-1303.54,3326.99,2735.18)"
       gradientUnits="userSpaceOnUse"
       y2="0"
       x2="1"
       y1="0"
       x1="0"><stop
         id="stop114"
         offset="0"
         style="stop-opacity:1;stop-color:#e6de21" /><stop
         id="stop116"
         offset="1"
         style="stop-opacity:1;stop-color:#f2a70e" /></linearGradient><clipPath
       id="clipPath128"
       clipPathUnits="userSpaceOnUse"><path
         id="path126"
         d="m 4181.25,3982.27 c 246.48,-680.5 -381.55,-1038.92 -708.38,-1418.53 -112.24,-130.35 -228.91,-407.66 -139.89,-666.79 -112.96,266.38 6.82,575.15 122.94,711.76 322.51,379.55 943.93,811.68 698.41,1370.51 -35.7,81.21 -215.35,171.32 -384.62,39.94 -82.52,-64.03 -119.68,-137.7 -122.75,-217.08 -3.22,87.21 32.29,169.6 122.45,242.15 143.86,115.74 297.8,60.02 382.21,-22.28 11.94,-11.63 24.05,-24.28 29.63,-39.68 z" /></clipPath><linearGradient
       id="linearGradient134"
       spreadMethod="pad"
       gradientTransform="matrix(0,-2213.16,-2213.16,0,3762.43,4110.11)"
       gradientUnits="userSpaceOnUse"
       y2="0"
       x2="1"
       y1="0"
       x1="0"><stop
         id="stop130"
         offset="0"
         style="stop-opacity:1;stop-color:#f0c30b" /><stop
         id="stop132"
         offset="1"
         style="stop-opacity:1;stop-color:#e5e719" /></linearGradient><clipPath
       id="clipPath144"
       clipPathUnits="userSpaceOnUse"><path
         id="path142"
         d="m 2648.66,1072.93 c 0,0 249.21,-202.34 580.26,-226.27 547.77,-39.601 839.6,266.04 622.55,552.3 -146.25,192.89 -390.28,110.08 -481.38,31.65 -192.19,-165.49 -354.66,-460.251 -721.43,-357.68 z" /></clipPath><linearGradient
       id="linearGradient150"
       spreadMethod="pad"
       gradientTransform="matrix(-439.662,-470.514,-470.514,439.662,3650.43,1477.72)"
       gradientUnits="userSpaceOnUse"
       y2="0"
       x2="1"
       y1="0"
       x1="0"><stop
         id="stop146"
         offset="0"
         style="stop-opacity:1;stop-color:#8f9295" /><stop
         id="stop148"
         offset="1"
         style="stop-opacity:1;stop-color:#3b212f" /></linearGradient><clipPath
       id="clipPath160"
       clipPathUnits="userSpaceOnUse"><path
         id="path158"
         d="m 3814.51,989.391 c 0,0 -498.06,-402.18 -1151.91,-449.442 C 1580.72,461.762 1004.34,1065.4 1433,1630.78 c 288.86,380.98 770.84,217.43 950.77,62.5 379.59,-326.83 706.36,-906.491 1430.74,-703.889 z" /></clipPath><linearGradient
       id="linearGradient166"
       spreadMethod="pad"
       gradientTransform="matrix(-2523.91,0,0,2523.91,3814.51,1198.91)"
       gradientUnits="userSpaceOnUse"
       y2="0"
       x2="1"
       y1="0"
       x1="0"><stop
         id="stop162"
         offset="0"
         style="stop-opacity:1;stop-color:#3b212f" /><stop
         id="stop164"
         offset="1"
         style="stop-opacity:1;stop-color:#8f9295" /></linearGradient><clipPath
       id="clipPath176"
       clipPathUnits="userSpaceOnUse"><path
         id="path174"
         d="m 3799.65,983.109 c -680.5,-246.48 -1038.93,381.561 -1418.53,708.391 -130.35,112.22 -407.65,228.91 -666.78,139.87 266.36,112.99 575.13,-6.82 711.75,-122.92 379.55,-322.52 811.67,-943.97 1370.5,-698.41 81.22,35.68 171.32,215.34 39.95,384.62 -64.04,82.52 -137.69,119.67 -217.09,122.74 87.23,3.22 169.61,-32.28 242.16,-122.44 115.74,-143.87 60.02,-297.8 -22.28,-382.23 -11.62,-11.94 -24.28,-24.05 -39.68,-29.621 z" /></clipPath><linearGradient
       id="linearGradient182"
       spreadMethod="pad"
       gradientTransform="matrix(-2213.15,0,0,2213.15,3927.49,1401.93)"
       gradientUnits="userSpaceOnUse"
       y2="0"
       x2="1"
       y1="0"
       x1="0"><stop
         id="stop178"
         offset="0"
         style="stop-opacity:1;stop-color:#675d66" /><stop
         id="stop180"
         offset="1"
         style="stop-opacity:1;stop-color:#937e98" /></linearGradient><clipPath
       id="clipPath192"
       clipPathUnits="userSpaceOnUse"><path
         id="path190"
         d="m 887.484,2524.09 c 0,0 -202.339,-249.2 -226.269,-580.25 -39.594,-547.77 266.043,-839.6 552.295,-622.55 192.89,146.25 110.08,390.28 31.65,481.38 -165.48,192.19 -460.25,354.66 -357.676,721.42 z" /></clipPath><linearGradient
       id="linearGradient198"
       spreadMethod="pad"
       gradientTransform="matrix(-470.511,439.659,439.659,470.511,1292.28,1522.32)"
       gradientUnits="userSpaceOnUse"
       y2="0"
       x2="1"
       y1="0"
       x1="0"><stop
         id="stop194"
         offset="0"
         style="stop-opacity:1;stop-color:#59aee5" /><stop
         id="stop196"
         offset="1"
         style="stop-opacity:1;stop-color:#284f90" /></linearGradient><clipPath
       id="clipPath208"
       clipPathUnits="userSpaceOnUse"><path
         id="path206"
         d="m 803.941,1358.25 c 0,0 -402.168,498.07 -449.425,1151.91 -78.211,1081.88 525.441,1658.26 1090.814,1229.6 380.98,-288.87 217.44,-770.84 62.51,-950.78 -326.83,-379.6 -906.488,-706.34 -703.899,-1430.73 z" /></clipPath><linearGradient
       id="linearGradient214"
       spreadMethod="pad"
       gradientTransform="matrix(1131.32,0,0,-1131.32,334.189,2620.21)"
       gradientUnits="userSpaceOnUse"
       y2="0"
       x2="1"
       y1="0"
       x1="0"><stop
         id="stop210"
         offset="0"
         style="stop-opacity:1;stop-color:#59aee5" /><stop
         id="stop212"
         offset="1"
         style="stop-opacity:1;stop-color:#284f90" /></linearGradient><clipPath
       id="clipPath224"
       clipPathUnits="userSpaceOnUse"><path
         id="path222"
         d="m 797.66,1373.11 c -246.476,680.49 381.56,1038.92 708.39,1418.53 112.23,130.34 228.92,407.65 139.88,666.77 112.97,-266.36 -6.82,-575.13 -122.92,-711.74 -322.52,-379.56 -943.963,-811.68 -698.408,-1370.52 35.671,-81.22 215.328,-171.3 384.608,-39.94 82.53,64.04 119.68,137.71 122.75,217.09 3.21,-87.24 -32.29,-169.6 -122.46,-242.16 -143.86,-115.75 -297.789,-60.02 -382.215,22.29 -11.93,11.62 -24.043,24.28 -29.625,39.68 z" /></clipPath><linearGradient
       id="linearGradient230"
       spreadMethod="pad"
       gradientTransform="matrix(788.735,0,0,-788.735,749.326,2351.84)"
       gradientUnits="userSpaceOnUse"
       y2="0"
       x2="1"
       y1="0"
       x1="0"><stop
         id="stop226"
         offset="0"
         style="stop-opacity:1;stop-color:#55aae2" /><stop
         id="stop228"
         offset="1"
         style="stop-opacity:1;stop-color:#2d57a2" /></linearGradient><clipPath
       id="clipPath588"
       clipPathUnits="userSpaceOnUse"><path
         id="path586"
         d="m 2064.76,2779.24 c 0,0 -3.38,0.02 -8.58,-0.51 -5.77,-0.26 -13.85,-0.91 -22.84,-3.16 -7.99,-1.97 -14.87,-4.52 -20.35,-7.44 -5.59,-3.22 -9.26,-6.75 -11.08,-10.25 -3.71,-6.96 -0.8,-13.2 7.34,-16.04 5.45,-1.87 10.89,-0.33 15.47,2.03 4.79,2.48 8.26,6.19 10.13,8.73 3.87,5.35 7.09,11.1 11.4,15.9 4.32,4.67 9.71,8.51 18.51,10.74 z" /></clipPath><linearGradient
       id="linearGradient594"
       spreadMethod="pad"
       gradientTransform="matrix(5.67968,28.3105,28.3105,-5.67968,2027.68,2741.87)"
       gradientUnits="userSpaceOnUse"
       y2="0"
       x2="1"
       y1="0"
       x1="0"><stop
         id="stop590"
         offset="0"
         style="stop-opacity:1;stop-color:#f36917" /><stop
         id="stop592"
         offset="1"
         style="stop-opacity:1;stop-color:#f1481d" /></linearGradient><clipPath
       id="clipPath604"
       clipPathUnits="userSpaceOnUse"><path
         id="path602"
         d="m 2002.34,2758.68 c 0,0 4.48,6.77 13.61,15 4.49,4.08 9.82,8.35 15.9,12.15 6.22,3.82 12.85,7.31 20.42,9.76 7.51,2.83 14.55,4.64 20.74,5.67 6.11,1.06 11.62,1.35 16.4,1 4.77,-0.31 8.96,-1.23 12.63,-2.59 3.44,-1.21 6.43,-2.8 8.86,-4.57 2.4,-1.66 4.28,-3.48 5.6,-5.33 1.37,-1.77 2.23,-3.55 2.46,-5.4 0.25,-1.81 -0.64,-3.11 -2.41,-4.11 -1.81,-1.02 -4.81,-1.82 -8.45,-2.61 -3.8,-0.86 -8.2,-1.74 -12.38,-2.65 -4.21,-0.93 -8.04,-1.7 -10.7,-2.28 -4.06,-0.59 -7.88,-0.98 -11.52,-1.17 -3.65,-0.24 -7.16,-0.29 -10.63,-0.3 -3.76,-0.06 -7.62,-0.01 -11.71,-0.08 -4.09,-0.05 -8.43,-0.28 -13.04,-0.82 -5.06,-0.49 -10.53,-1.42 -16.46,-3.07 -6.13,-1.78 -12.67,-4.52 -19.32,-8.6 z" /></clipPath><linearGradient
       id="linearGradient610"
       spreadMethod="pad"
       gradientTransform="matrix(96.5927,59.6906,59.6906,-96.5927,2011.31,2744.17)"
       gradientUnits="userSpaceOnUse"
       y2="0"
       x2="1"
       y1="0"
       x1="0"><stop
         id="stop606"
         offset="0"
         style="stop-opacity:1;stop-color:#f36917" /><stop
         id="stop608"
         offset="1"
         style="stop-opacity:1;stop-color:#f1481d" /></linearGradient><clipPath
       id="clipPath620"
       clipPathUnits="userSpaceOnUse"><path
         id="path618"
         d="m 2003.07,2759.27 c 5.98,4.17 12.05,6.95 17.92,8.74 5.72,1.72 11.13,2.59 16.26,3.07 4.72,0.41 9.13,0.54 13.32,0.52 4.19,-0.05 8.2,-0.18 12.15,-0.26 3.46,0.05 7.08,0.11 10.78,0.32 3.72,0.18 7.6,0.56 11.67,1.16 3.81,0.76 9.95,2.03 15.88,3.21 6.16,1.38 11.47,2.48 14.65,3.95 -2.99,-1.71 -8.58,-3.02 -15.05,-4.76 -6.74,-1.41 -13.45,-2.94 -17.73,-3.62 -5.94,-1.09 -11.79,-1.59 -17.43,-1.86 -5.82,-0.3 -11.67,-0.17 -18.01,-0.19 -6.19,0 -13.18,-0.21 -20.54,-1.4 -3.93,-0.7 -7.86,-1.75 -11.71,-3.35 -3.85,-1.6 -7.59,-3.73 -11.01,-6.55 -4.07,-3.33 -4.34,-12.59 6.82,-15.89 4.81,-1.71 8.41,-1.08 12.37,0.89 -4.25,-2.43 -8.38,-3.31 -14.26,-1.62 -9.19,2.77 -10.13,10.18 -7.67,15.55 z" /></clipPath><linearGradient
       id="linearGradient626"
       spreadMethod="pad"
       gradientTransform="matrix(97.2988,60.1269,60.1269,-97.2988,2007.44,2737.59)"
       gradientUnits="userSpaceOnUse"
       y2="0"
       x2="1"
       y1="0"
       x1="0"><stop
         id="stop622"
         offset="0"
         style="stop-opacity:1;stop-color:#f36917" /><stop
         id="stop624"
         offset="1"
         style="stop-opacity:1;stop-color:#f1481d" /></linearGradient><clipPath
       id="clipPath636"
       clipPathUnits="userSpaceOnUse"><path
         id="path634"
         d="m 2148.18,2767.52 c 0,0 -0.61,1.81 -1.93,4.48 -1.24,2.66 -3.05,6.16 -5.76,9.76 -2.22,3.12 -4.51,5.78 -6.74,7.93 -2.19,2.22 -4.48,3.79 -6.58,4.58 -4.31,1.64 -7.92,0.17 -9.2,-2.72 -1.85,-4.33 5.27,-8.08 8.85,-9.65 3.87,-1.43 7.82,-2.84 11.4,-4.98 3.63,-1.99 6.97,-4.72 9.96,-9.4 z" /></clipPath><linearGradient
       id="linearGradient642"
       spreadMethod="pad"
       gradientTransform="matrix(20.4233,-4.09734,-4.09734,-20.4233,2119.29,2784.67)"
       gradientUnits="userSpaceOnUse"
       y2="0"
       x2="1"
       y1="0"
       x1="0"><stop
         id="stop638"
         offset="0"
         style="stop-opacity:1;stop-color:#e8c618" /><stop
         id="stop640"
         offset="1"
         style="stop-opacity:1;stop-color:#f47a14" /></linearGradient><clipPath
       id="clipPath652"
       clipPathUnits="userSpaceOnUse"><path
         id="path650"
         d="m 2127.69,2794.06 c 0,0 4.15,-1.87 9.71,-5.73 2.76,-1.8 5.87,-4.02 9.05,-6.76 3.19,-2.66 6.45,-5.79 9.5,-9.52 3.56,-4.04 6.52,-8.14 9.08,-12.25 2.53,-4.04 4.51,-8.13 6,-12.03 1.44,-3.91 2.27,-7.62 2.56,-11.02 0.23,-3.48 -0.06,-6.55 -0.88,-9.14 -0.83,-2.61 -2.1,-4.78 -3.76,-6.31 -1.66,-1.55 -3.66,-2.46 -5.94,-2.49 -2.34,-0.07 -4.27,1.31 -5.93,3.91 -1.5,2.48 -2.8,6.24 -4.24,10.66 -1.09,4.2 -2.3,8.7 -3.53,12.59 -1.07,3.84 -2.03,6.98 -2.7,9.03 -1.62,5.77 -2.7,10.24 -3.91,14.1 -1.24,3.82 -2.38,7.35 -4.56,11.19 -1.07,1.92 -2.35,3.99 -4.02,6.23 -1.68,2.23 -3.78,4.77 -6.43,7.54 z" /></clipPath><linearGradient
       id="linearGradient658"
       spreadMethod="pad"
       gradientTransform="matrix(21.868,13.5136,13.5136,-21.868,2139.53,2752.13)"
       gradientUnits="userSpaceOnUse"
       y2="0"
       x2="1"
       y1="0"
       x1="0"><stop
         id="stop654"
         offset="0"
         style="stop-opacity:1;stop-color:#e8c618" /><stop
         id="stop656"
         offset="1"
         style="stop-opacity:1;stop-color:#f47a14" /></linearGradient><clipPath
       id="clipPath668"
       clipPathUnits="userSpaceOnUse"><path
         id="path666"
         d="m 2128.04,2793.75 c 2.72,-2.48 4.8,-4.84 6.44,-7.03 1.66,-2.17 2.88,-4.21 3.93,-6.13 2.07,-3.84 3.2,-7.46 4.4,-11.34 1.15,-3.96 2.3,-8.6 3.9,-14.34 0.87,-3 2.46,-8.24 4.12,-14.52 1.78,-6.06 3.52,-12.34 5.82,-16.55 -1.32,2.02 -2.49,4.76 -3.6,7.83 -1.12,2.91 -2.05,6.27 -3.04,9.67 -1.03,3.2 -1.92,6.23 -2.7,8.83 -0.77,2.57 -1.46,4.77 -1.92,6.33 -1.22,4.32 -2.34,8 -3.37,11.14 -0.99,3.19 -1.84,6.02 -2.9,8.65 -1.02,2.74 -2.2,5.47 -3.91,8.31 -1.71,2.87 -4.09,5.83 -7.72,8.66 -2.12,1.74 -7.7,1.74 -9.11,-2.2 -0.76,-2.13 -0.22,-3.55 1.34,-4.93 -1.85,1.51 -2.62,3.07 -1.85,5.33 1.15,3.49 5.57,3.98 8.85,2.96 z" /></clipPath><linearGradient
       id="linearGradient674"
       spreadMethod="pad"
       gradientTransform="matrix(41.5195,-67.1879,-67.1879,-41.5195,2121.25,2794.81)"
       gradientUnits="userSpaceOnUse"
       y2="0"
       x2="1"
       y1="0"
       x1="0"><stop
         id="stop670"
         offset="0"
         style="stop-opacity:1;stop-color:#f2a70e" /><stop
         id="stop672"
         offset="1"
         style="stop-opacity:1;stop-color:#e6dd1a" /></linearGradient><clipPath
       id="clipPath684"
       clipPathUnits="userSpaceOnUse"><path
         id="path682"
         d="m 2145.14,2668.19 c 0,0 3.02,0.78 7.28,3.05 4.35,2.04 9.64,5.1 14.49,9.99 3.89,4.03 6.82,8.02 8.72,11.91 1.91,3.71 2.87,7.45 2.86,10.89 -0.01,6.88 -3.18,12.89 -7.36,15.6 -5.49,3.24 -8.18,-6.41 -9.01,-12.13 -1.16,-6.2 -2.03,-13.28 -4.1,-20.15 -1.12,-3.4 -2.56,-6.83 -4.62,-10.06 -2.03,-3.23 -4.72,-6.32 -8.26,-9.1 z" /></clipPath><linearGradient
       id="linearGradient690"
       spreadMethod="pad"
       gradientTransform="matrix(-6.64515,-33.1229,-33.1229,6.64515,2168.02,2716.03)"
       gradientUnits="userSpaceOnUse"
       y2="0"
       x2="1"
       y1="0"
       x1="0"><stop
         id="stop686"
         offset="0"
         style="stop-opacity:1;stop-color:#3b212f" /><stop
         id="stop688"
         offset="1"
         style="stop-opacity:1;stop-color:#8f9295" /></linearGradient><clipPath
       id="clipPath700"
       clipPathUnits="userSpaceOnUse"><path
         id="path698"
         d="m 2178.49,2703.38 c 0,0 -0.47,-7.23 -3.33,-17.13 -1.43,-5.48 -3.61,-11.77 -6.9,-18.47 -1.64,-3.32 -3.53,-6.76 -5.76,-10.17 -2.22,-3.44 -4.74,-6.8 -7.56,-9.93 -3.26,-3.84 -6.55,-7.25 -9.85,-10.29 -3.35,-3.08 -6.69,-5.72 -10.01,-7.99 -6.78,-4.88 -13.28,-8.13 -19.46,-10.01 -6.15,-1.98 -11.88,-2.72 -16.9,-2.28 -5.09,0.22 -9.56,1.52 -13.3,3.68 -3.66,2.11 -6.58,5.05 -8.68,8.56 -1.97,3.62 -3.05,7.87 -2.95,12.87 0.21,4.97 2.08,9.24 5.42,12.99 3.11,3.58 7.76,6.68 13.28,9.89 5.27,2.38 11.1,4.84 16.27,6.97 5.42,1.8 10.16,3.2 13.34,3.98 4.37,1.23 8.53,2 12.34,2.7 4.03,0.57 7.67,1.16 10.91,1.89 6.77,1.26 12.66,2.74 18.15,6.24 2.84,1.67 5.44,3.74 7.96,6.4 2.49,2.67 4.87,5.94 7.03,10.1 z" /></clipPath><linearGradient
       id="linearGradient706"
       spreadMethod="pad"
       gradientTransform="matrix(-106.74,-65.9615,-65.9615,106.74,2185.74,2691.62)"
       gradientUnits="userSpaceOnUse"
       y2="0"
       x2="1"
       y1="0"
       x1="0"><stop
         id="stop702"
         offset="0"
         style="stop-opacity:1;stop-color:#3b212f" /><stop
         id="stop704"
         offset="1"
         style="stop-opacity:1;stop-color:#8f9295" /></linearGradient><clipPath
       id="clipPath716"
       clipPathUnits="userSpaceOnUse"><path
         id="path714"
         d="m 2178.29,2702.77 c -1.82,-4.27 -4.01,-7.62 -6.37,-10.25 -2.42,-2.74 -5.04,-4.69 -7.72,-6.33 -5.58,-3.32 -11.59,-4.59 -18.33,-5.89 -3.49,-0.62 -7.18,-1.18 -11.31,-1.78 -3.89,-0.7 -8.16,-1.47 -12.72,-2.61 -2.37,-0.55 -5.44,-1.41 -8.9,-2.46 -3.51,-1.02 -7.27,-2.27 -11.17,-3.64 -4.1,-1.94 -8.05,-3.83 -11.66,-6.08 -3.56,-2.18 -6.87,-4.62 -9.55,-7.42 2.59,3.02 6,5.82 9.76,8.23 3.77,2.48 7.9,4.6 12.2,6.35 4.26,1.88 8.44,3.49 12.08,4.84 3.79,1.11 7.09,2.09 9.54,2.65 6.84,1.59 13.15,2.82 18.67,4.01 5.35,1.17 10.06,2.14 14.36,3.55 4.36,1.29 8.31,3 11.96,5.63 3.48,2.73 6.49,6.44 8.33,12.29 1.14,3.18 -1.27,12.14 -6.65,15.09 -2.59,1.53 -4.24,1.05 -5.42,-0.9 1.27,2.36 2.97,3.1 5.7,1.55 4.69,-2.5 7.21,-9.53 7.4,-14.67 z" /></clipPath><linearGradient
       id="linearGradient722"
       spreadMethod="pad"
       gradientTransform="matrix(-95.0059,-58.71,-58.71,95.0059,2178.14,2710.83)"
       gradientUnits="userSpaceOnUse"
       y2="0"
       x2="1"
       y1="0"
       x1="0"><stop
         id="stop718"
         offset="0"
         style="stop-opacity:1;stop-color:#3b212f" /><stop
         id="stop720"
         offset="1"
         style="stop-opacity:1;stop-color:#8f9295" /></linearGradient><clipPath
       id="clipPath732"
       clipPathUnits="userSpaceOnUse"><path
         id="path730"
         d="m 2023.75,2669.18 c 0,0 -0.06,-4.05 1.02,-9.75 0.99,-6.01 3.25,-13.43 7.78,-20.53 3.76,-5.9 7.83,-10.47 11.88,-13.83 4.09,-3.4 8.2,-5.59 12.05,-6.6 7.7,-2.05 14.56,0.47 17.61,7.02 2.14,5.19 0.13,9.28 -3.05,12.56 -3.2,3.26 -7.63,5.35 -10.74,6.41 -7,1.68 -14.47,3.26 -20.88,6.69 -3.33,1.6 -6.36,3.72 -9.04,6.63 -2.64,2.94 -4.91,6.66 -6.63,11.4 z" /></clipPath><linearGradient
       id="linearGradient738"
       spreadMethod="pad"
       gradientTransform="matrix(-34.5177,6.92496,6.92496,34.5177,2072,2637.4)"
       gradientUnits="userSpaceOnUse"
       y2="0"
       x2="1"
       y1="0"
       x1="0"><stop
         id="stop734"
         offset="0"
         style="stop-opacity:1;stop-color:#59aee5" /><stop
         id="stop736"
         offset="1"
         style="stop-opacity:1;stop-color:#284f90" /></linearGradient><clipPath
       id="clipPath748"
       clipPathUnits="userSpaceOnUse"><path
         id="path746"
         d="m 2055.63,2618.68 c 0,0 -7.66,2.69 -17.82,8.81 -5.1,2.95 -10.74,6.98 -16.32,11.93 -5.54,4.95 -11.03,10.87 -15.82,17.81 -2.61,3.81 -4.89,7.61 -6.88,11.36 -2,3.74 -3.67,7.43 -5.11,11.08 -2.74,7.21 -4.33,14.1 -4.82,20.55 -0.46,6.42 0.18,12.37 1.91,17.73 1.82,5.26 4.71,9.84 8.64,13.53 3.93,3.7 8.58,6.43 13.68,8.21 4.98,1.68 10.11,2.48 15.19,2.28 4.93,-0.26 8.15,-1.86 10.26,-4.57 2.07,-2.54 3,-6.46 3.53,-11.24 0.29,-4.56 0.14,-9.84 -0.02,-14.87 -0.46,-5.1 -1.09,-9.84 -1.43,-13.17 -0.98,-5.07 -1.95,-9.98 -2.66,-14.57 -0.99,-5.06 -1.73,-9.82 -2.12,-14.17 -0.37,-4.65 -0.56,-9.11 -0.3,-13.55 0.24,-4.39 0.98,-8.67 2.33,-12.91 1.37,-4.4 3.37,-8.47 6.22,-12.49 2.89,-4.02 6.69,-7.93 11.54,-11.75 z" /></clipPath><linearGradient
       id="linearGradient754"
       spreadMethod="pad"
       gradientTransform="matrix(50.8241,31.4073,31.4073,-50.8241,2002.81,2660.25)"
       gradientUnits="userSpaceOnUse"
       y2="0"
       x2="1"
       y1="0"
       x1="0"><stop
         id="stop750"
         offset="0"
         style="stop-opacity:1;stop-color:#59aee5" /><stop
         id="stop752"
         offset="1"
         style="stop-opacity:1;stop-color:#284f90" /></linearGradient><clipPath
       id="clipPath764"
       clipPathUnits="userSpaceOnUse"><path
         id="path762"
         d="m 2054.94,2619.07 c -4.99,3.43 -8.73,7.08 -11.62,10.87 -2.84,3.88 -4.83,7.9 -6.13,12.13 -1.36,4.19 -2.02,8.55 -2.23,13.04 -0.17,4.46 0.07,9 0.48,13.68 0.46,4.49 1.27,9.35 2.25,14.56 0.7,4.68 1.71,9.67 2.8,14.9 0.38,2.44 0.84,5.54 1.24,8.94 0.41,3.35 0.72,7.04 1.06,10.71 -0.5,7.32 -1.01,13.98 -3.72,18.38 3.27,-4.15 4.12,-11.17 4.41,-19.02 0.14,-3.92 -0.01,-7.83 -0.13,-11.4 -0.47,-3.7 -0.92,-7.11 -1.26,-9.74 -0.62,-3.8 -1.19,-7.58 -1.85,-11.44 -0.57,-3.71 -1.13,-7.52 -1.48,-11.02 -0.87,-7.82 -1.3,-14.89 -0.82,-21.31 0.46,-6.58 1.72,-12.73 4.34,-18.24 2.89,-5.44 7.1,-10.37 13.66,-14.36 3.83,-2.28 14.02,-1.79 17.46,6.25 1.81,4.83 1.14,8.03 -1.27,10.76 2.95,-2.94 3.94,-6.33 2.06,-11.61 -2.9,-6.96 -11.04,-8.28 -16.89,-6.95 z" /></clipPath><linearGradient
       id="linearGradient770"
       spreadMethod="pad"
       gradientTransform="matrix(37.1032,22.9284,22.9284,-37.1032,2025.1,2659.98)"
       gradientUnits="userSpaceOnUse"
       y2="0"
       x2="1"
       y1="0"
       x1="0"><stop
         id="stop766"
         offset="0"
         style="stop-opacity:1;stop-color:#55aae2" /><stop
         id="stop768"
         offset="1"
         style="stop-opacity:1;stop-color:#2d57a2" /></linearGradient></defs><g
     transform="matrix(1.3333333,0,0,-1.3333333,0,666.66667)"
     id="g10"><g
       transform="scale(0.1)"
       id="g12"><g
         id="g14" /><g
         id="g42"><g
           clip-path="url(#clipPath48)"
           id="g44"><path
             id="path56"
             style="fill:url(#linearGradient54);fill-opacity:1;fill-rule:nonzero;stroke:none"
             d="m 2330.25,4287.64 c 0,0 -249.21,202.35 -580.25,226.28 -547.76,39.6 -839.605,-266.04 -622.56,-552.29 146.25,-192.89 390.28,-110.1 481.39,-31.65 192.2,165.47 354.66,460.25 721.42,357.66" /></g></g><g
         id="g58"><g
           clip-path="url(#clipPath64)"
           id="g60"><path
             id="path72"
             style="fill:url(#linearGradient70);fill-opacity:1;fill-rule:nonzero;stroke:none"
             d="m 1164.41,4371.2 c 0,0 498.07,402.16 1151.91,449.42 1081.88,78.21 1658.25,-525.45 1229.6,-1090.81 -288.87,-380.98 -770.84,-217.44 -950.78,-62.52 -379.6,326.84 -706.34,906.5 -1430.73,703.91" /></g></g><g
         id="g74"><g
           clip-path="url(#clipPath80)"
           id="g76"><path
             id="path88"
             style="fill:url(#linearGradient86);fill-opacity:1;fill-rule:nonzero;stroke:none"
             d="m 1179.26,4377.46 c 680.51,246.48 1038.93,-381.55 1418.54,-708.38 130.33,-112.23 407.65,-228.92 666.78,-139.88 -266.37,-112.97 -575.15,6.83 -711.75,122.92 -379.55,322.52 -811.68,943.96 -1370.52,698.41 -81.2,-35.67 -171.31,-215.32 -39.93,-384.61 64.03,-82.52 137.7,-119.67 217.08,-122.74 -87.22,-3.21 -169.6,32.29 -242.15,122.46 -115.75,143.85 -60.03,297.79 22.28,382.21 11.62,11.92 24.28,24.04 39.67,29.61" /></g></g><g
         id="g90"><g
           clip-path="url(#clipPath96)"
           id="g92"><path
             id="path104"
             style="fill:url(#linearGradient102);fill-opacity:1;fill-rule:nonzero;stroke:none"
             d="m 4091.44,2831.28 c 0,0 202.34,249.21 226.27,580.25 39.58,547.78 -266.05,839.61 -552.3,622.57 -192.89,-146.25 -110.1,-390.29 -31.66,-481.4 165.49,-192.19 460.24,-354.65 357.69,-721.42" /></g></g><g
         id="g106"><g
           clip-path="url(#clipPath112)"
           id="g108"><path
             id="path120"
             style="fill:url(#linearGradient118);fill-opacity:1;fill-rule:nonzero;stroke:none"
             d="m 4174.98,3997.13 c 0,0 402.17,-498.07 449.42,-1151.92 78.21,-1081.87 -525.44,-1658.25 -1090.82,-1229.59 -380.96,288.87 -217.44,770.84 -62.51,950.78 326.84,379.59 906.49,706.34 703.91,1430.73" /></g></g><g
         id="g122"><g
           clip-path="url(#clipPath128)"
           id="g124"><path
             id="path136"
             style="fill:url(#linearGradient134);fill-opacity:1;fill-rule:nonzero;stroke:none"
             d="m 4181.25,3982.27 c 246.48,-680.5 -381.55,-1038.92 -708.38,-1418.53 -112.24,-130.35 -228.91,-407.66 -139.89,-666.79 -112.96,266.38 6.82,575.15 122.94,711.76 322.51,379.55 943.93,811.68 698.41,1370.51 -35.7,81.21 -215.35,171.32 -384.62,39.94 -82.52,-64.03 -119.68,-137.7 -122.75,-217.08 -3.22,87.21 32.29,169.6 122.45,242.15 143.86,115.74 297.8,60.02 382.21,-22.28 11.94,-11.63 24.05,-24.28 29.63,-39.68" /></g></g><g
         id="g138"><g
           clip-path="url(#clipPath144)"
           id="g140"><path
             id="path152"
             style="fill:url(#linearGradient150);fill-opacity:1;fill-rule:nonzero;stroke:none"
             d="m 2648.66,1072.93 c 0,0 249.21,-202.34 580.26,-226.27 547.77,-39.601 839.6,266.04 622.55,552.3 -146.25,192.89 -390.28,110.08 -481.38,31.65 -192.19,-165.49 -354.66,-460.251 -721.43,-357.68" /></g></g><g
         id="g154"><g
           clip-path="url(#clipPath160)"
           id="g156"><path
             id="path168"
             style="fill:url(#linearGradient166);fill-opacity:1;fill-rule:nonzero;stroke:none"
             d="m 3814.51,989.391 c 0,0 -498.06,-402.18 -1151.91,-449.442 C 1580.72,461.762 1004.34,1065.4 1433,1630.78 c 288.86,380.98 770.84,217.43 950.77,62.5 379.59,-326.83 706.36,-906.491 1430.74,-703.889" /></g></g><g
         id="g170"><g
           clip-path="url(#clipPath176)"
           id="g172"><path
             id="path184"
             style="fill:url(#linearGradient182);fill-opacity:1;fill-rule:nonzero;stroke:none"
             d="m 3799.65,983.109 c -680.5,-246.48 -1038.93,381.561 -1418.53,708.391 -130.35,112.22 -407.65,228.91 -666.78,139.87 266.36,112.99 575.13,-6.82 711.75,-122.92 379.55,-322.52 811.67,-943.97 1370.5,-698.41 81.22,35.68 171.32,215.34 39.95,384.62 -64.04,82.52 -137.69,119.67 -217.09,122.74 87.23,3.22 169.61,-32.28 242.16,-122.44 115.74,-143.87 60.02,-297.8 -22.28,-382.23 -11.62,-11.94 -24.28,-24.05 -39.68,-29.621" /></g></g><g
         id="g186"><g
           clip-path="url(#clipPath192)"
           id="g188"><path
             id="path200"
             style="fill:url(#linearGradient198);fill-opacity:1;fill-rule:nonzero;stroke:none"
             d="m 887.484,2524.09 c 0,0 -202.339,-249.2 -226.269,-580.25 -39.594,-547.77 266.043,-839.6 552.295,-622.55 192.89,146.25 110.08,390.28 31.65,481.38 -165.48,192.19 -460.25,354.66 -357.676,721.42" /></g></g><g
         id="g202"><g
           clip-path="url(#clipPath208)"
           id="g204"><path
             id="path216"
             style="fill:url(#linearGradient214);fill-opacity:1;fill-rule:nonzero;stroke:none"
             d="m 803.941,1358.25 c 0,0 -402.168,498.07 -449.425,1151.91 -78.211,1081.88 525.441,1658.26 1090.814,1229.6 380.98,-288.87 217.44,-770.84 62.51,-950.78 -326.83,-379.6 -906.488,-706.34 -703.899,-1430.73" /></g></g><g
         id="g218"><g
           clip-path="url(#clipPath224)"
           id="g220"><path
             id="path232"
             style="fill:url(#linearGradient230);fill-opacity:1;fill-rule:nonzero;stroke:none"
             d="m 797.66,1373.11 c -246.476,680.49 381.56,1038.92 708.39,1418.53 112.23,130.34 228.92,407.65 139.88,666.77 112.97,-266.36 -6.82,-575.13 -122.92,-711.74 -322.52,-379.56 -943.963,-811.68 -698.408,-1370.52 35.671,-81.22 215.328,-171.3 384.608,-39.94 82.53,64.04 119.68,137.71 122.75,217.09 3.21,-87.24 -32.29,-169.6 -122.46,-242.16 -143.86,-115.75 -297.789,-60.02 -382.215,22.29 -11.93,11.62 -24.043,24.28 -29.625,39.68" /></g></g><path
         id="path234"
         style="fill:#ffffff;fill-opacity:1;fill-rule:nonzero;stroke:none"
         d="m 1303.82,4146.77 c 0,-41.72 10.43,-62.84 31.29,-63.37 12.83,0 21.38,5.92 25.66,17.75 4.28,11.84 6.42,26.78 6.42,44.83 0,41.77 -10.43,62.66 -31.29,62.66 -13.07,-1.11 -21.62,-7.19 -25.67,-18.23 -4.04,-11.05 -6.18,-25.6 -6.41,-43.64 z m 31.29,85.25 c 24.14,0 41.86,-7.29 53.17,-21.88 11.31,-14.59 17.23,-35.98 17.76,-64.16 0,-18.4 -2.85,-34.02 -8.53,-46.85 -5.68,-12.83 -13.86,-22.5 -24.52,-29 -10.67,-6.5 -23.29,-9.76 -37.88,-9.76 -13.48,0 -25.51,3.3 -36.08,9.89 -10.58,6.59 -18.84,16.36 -24.79,29.31 -5.94,12.95 -8.92,28.68 -8.92,47.2 0.35,27.54 6.55,48.54 18.59,63.02 12.04,14.47 29.11,21.88 51.2,22.23" /><path
         id="path236"
         style="fill:#ffffff;fill-opacity:1;fill-rule:nonzero;stroke:none"
         d="m 1443.92,4213.3 73.38,18.02 v -169.54 h -37.09 v 137.55 l -36.29,-7.91 v 21.88" /><path
         id="path238"
         style="fill:#ffffff;fill-opacity:1;fill-rule:nonzero;stroke:none"
         d="m 3855.28,3762.72 c 0,-41.71 10.43,-62.84 31.29,-63.36 12.83,0 21.39,5.91 25.67,17.75 4.27,11.84 6.41,26.78 6.41,44.82 0,41.78 -10.43,62.67 -31.29,62.67 -13.06,-1.11 -21.62,-7.19 -25.66,-18.24 -4.04,-11.04 -6.18,-25.59 -6.42,-43.64 z m 31.29,85.26 c 24.14,0 41.87,-7.3 53.18,-21.89 11.3,-14.59 17.22,-35.97 17.75,-64.16 0,-18.39 -2.84,-34.01 -8.53,-46.84 -5.68,-12.83 -13.85,-22.5 -24.52,-29.01 -10.66,-6.5 -23.29,-9.75 -37.88,-9.75 -13.47,0 -25.5,3.29 -36.08,9.89 -10.57,6.59 -18.83,16.36 -24.79,29.31 -5.93,12.95 -8.91,28.68 -8.91,47.19 0.35,27.54 6.55,48.55 18.58,63.02 12.05,14.47 29.11,21.89 51.2,22.24" /><path
         id="path240"
         style="fill:#ffffff;fill-opacity:1;fill-rule:nonzero;stroke:none"
         d="m 4112.01,3700.06 v -22.33 H 3978.77 V 3699 c 0,2.41 1.48,6.55 4.43,12.44 2.97,5.89 8.3,12.85 16,20.87 7.71,8.03 18.3,16.12 31.78,24.26 12.65,7.5 21.93,13.35 27.81,17.54 5.9,4.19 10.17,8.38 12.83,12.56 2.68,4.19 4.01,9.16 4.01,14.9 -0.47,15.76 -11.28,23.79 -32.44,24.08 -16.75,0 -30.44,-3.63 -41.04,-10.89 -10.61,-7.27 -17.78,-13.33 -21.53,-18.2 v 30.59 c 0,0.35 1.29,1.6 3.91,3.73 2.6,2.14 6.34,4.46 11.2,6.95 4.87,2.49 11.22,4.67 19.07,6.54 7.86,1.88 17.08,2.85 27.69,2.91 15.88,0 29.13,-2.06 39.78,-6.16 10.62,-4.1 18.59,-10.08 23.9,-17.93 5.29,-7.85 7.95,-17.22 7.95,-28.12 -0.7,-5.74 -2.13,-10.8 -4.26,-15.16 -2.15,-4.37 -6.13,-9.07 -11.95,-14.11 -5.84,-5.04 -13.99,-10.4 -24.48,-16.08 -26.31,-14.36 -44.18,-29.48 -53.62,-45.35 l -2.54,-4.31 h 94.74" /><path
         id="path242"
         style="fill:#ffffff;fill-opacity:1;fill-rule:nonzero;stroke:none"
         d="m 3428.02,1209.76 c 0,-41.72 10.42,-62.85 31.28,-63.37 12.82,0 21.37,5.91 25.65,17.75 4.27,11.84 6.41,26.78 6.41,44.82 0,41.78 -10.42,62.67 -31.28,62.67 -13.06,-1.11 -21.61,-7.2 -25.66,-18.23 -4.04,-11.06 -6.17,-25.6 -6.4,-43.64 z m 31.28,85.25 c 24.13,0 41.84,-7.3 53.15,-21.89 11.31,-14.58 17.23,-35.97 17.76,-64.16 0,-18.39 -2.86,-34.01 -8.54,-46.84 -5.67,-12.83 -13.85,-22.5 -24.51,-29 -10.66,-6.51 -23.28,-9.76 -37.86,-9.76 -13.48,0 -25.5,3.3 -36.08,9.88 -10.57,6.6 -18.84,16.37 -24.78,29.32 -5.95,12.95 -8.92,28.68 -8.92,47.2 0.35,27.53 6.54,48.54 18.59,63.01 12.04,14.48 29.1,21.89 51.19,22.24" /><path
         id="path244"
         style="fill:#ffffff;fill-opacity:1;fill-rule:nonzero;stroke:none"
         d="m 3560.87,1250.8 v 28.74 c 0,0.59 2.05,2.08 6.15,4.48 4.1,2.41 10.18,4.71 18.2,6.9 8.03,2.2 18.01,3.45 29.97,3.74 18.1,0 33.75,-2.71 46.93,-8.14 13.18,-5.41 19.86,-14.92 20.04,-28.51 0,-16.35 -5.53,-26.98 -16.6,-31.91 -11.08,-4.92 -20.32,-7.38 -27.7,-7.38 0.7,-0.06 3.71,-0.46 9.02,-1.18 5.3,-0.74 11.07,-2.38 17.31,-4.92 6.24,-2.56 11.74,-6.56 16.48,-12 4.75,-5.45 7.29,-12.63 7.64,-21.54 0,-12.54 -3.38,-22.99 -10.15,-31.33 -6.76,-8.36 -15.64,-14.51 -26.63,-18.45 -10.98,-3.97 -22.87,-5.94 -35.64,-5.94 -14.36,0.29 -26.23,1.97 -35.64,5.06 -9.4,3.06 -16.24,6.33 -20.51,9.74 -4.28,3.44 -6.43,5.68 -6.43,6.73 v 37.44 c 3.22,-5.86 9.37,-13.24 18.42,-22.14 9.05,-8.91 20.55,-13.51 34.49,-13.8 14.77,0 25.71,2.85 32.83,8.57 7.12,5.7 10.69,13.52 10.69,23.42 -0.47,11.37 -5.5,19.13 -15.08,23.29 -9.58,4.16 -20.37,6.24 -32.38,6.24 -3.17,0 -5.9,-0.09 -8.19,-0.26 -2.28,-0.18 -3.88,-0.33 -4.82,-0.44 v 21.97 c 0.99,-0.12 2.7,-0.26 5.13,-0.44 2.44,-0.18 5.3,-0.26 8.58,-0.26 29.53,0 44.3,8.38 44.3,25.13 -0.71,6.74 -3.93,11.49 -9.67,14.24 -5.74,2.76 -14.3,4.13 -25.67,4.13 -10.6,0 -19.68,-1.55 -27.24,-4.66 -7.56,-3.1 -13.15,-6.24 -16.75,-9.4 -3.6,-3.16 -5.97,-5.54 -7.08,-7.12" /><path
         id="path246"
         style="fill:#ffffff;fill-opacity:1;fill-rule:nonzero;stroke:none"
         d="m 927.297,1621.51 c 0,-41.72 10.43,-62.84 31.289,-63.37 12.832,0 21.387,5.92 25.66,17.76 4.277,11.83 6.43,26.78 6.43,44.82 0,41.78 -10.434,62.67 -31.289,62.67 -13.071,-1.11 -21.621,-7.2 -25.664,-18.23 -4.043,-11.06 -6.196,-25.6 -6.426,-43.65 z m 31.289,85.26 c 24.141,0 41.874,-7.3 53.184,-21.89 11.31,-14.59 17.22,-35.97 17.75,-64.16 0,-18.4 -2.85,-34.01 -8.53,-46.84 -5.69,-12.84 -13.85,-22.5 -24.513,-29.01 -10.664,-6.5 -23.301,-9.75 -37.891,-9.75 -13.481,0 -25.5,3.3 -36.074,9.88 -10.578,6.6 -18.84,16.37 -24.785,29.32 -5.95,12.95 -8.926,28.68 -8.926,47.19 0.347,27.54 6.551,48.55 18.594,63.02 12.039,14.47 29.097,21.89 51.191,22.24" /><path
         id="path248"
         style="fill:#ffffff;fill-opacity:1;fill-rule:nonzero;stroke:none"
         d="m 1080.32,1596.29 h 54.75 v 64.07 z m 93.6,-59.77 h -38.85 v 38.85 h -84.98 v 24.52 l 88.94,105.47 h 34.89 v -109.07 h 20.13 v -20.92 h -20.13 v -38.85" /><path
         id="path490"
         style="fill:#65686d;fill-opacity:1;fill-rule:nonzero;stroke:none"
         d="m 3638.54,3062.21 h -252.35 v 267.03 h 93.22 v 92.57 h 159.13 z m -169.68,379.81 -102.87,-102.88 v -297.12 h 292.74 v 400 h -189.87" /><path
         id="path492"
         style="fill:#65686d;fill-opacity:1;fill-rule:nonzero;stroke:none"
         d="m 3617.89,3329.24 v 20.72 h -114.96 v -20.72 h 114.96" /><path
         id="path494"
         style="fill:#65686d;fill-opacity:1;fill-rule:nonzero;stroke:none"
         d="m 3406.27,3270.09 h 211.62 v 20.74 h -211.62 v -20.74" /><path
         id="path496"
         style="fill:#65686d;fill-opacity:1;fill-rule:nonzero;stroke:none"
         d="m 3406.27,3228.67 h 211.62 v 20.71 h -211.62 v -20.71" /><path
         id="path498"
         style="fill:#65686d;fill-opacity:1;fill-rule:nonzero;stroke:none"
         d="m 3406.27,3187.19 h 211.62 v 20.74 h -211.62 v -20.74" /><path
         id="path500"
         style="fill:#65686d;fill-opacity:1;fill-rule:nonzero;stroke:none"
         d="m 3406.27,3145.77 h 211.62 v 20.72 h -211.62 v -20.72" /><path
         id="path502"
         style="fill:#65686d;fill-opacity:1;fill-rule:nonzero;stroke:none"
         d="m 3406.27,3104.32 h 211.62 v 20.72 h -211.62 v -20.72" /><path
         id="path504"
         style="fill:#65686d;fill-opacity:1;fill-rule:nonzero;stroke:none"
         d="m 1454.67,2248.32 c 0,-7.86 -6.37,-14.24 -14.25,-14.24 -7.87,0 -14.25,6.38 -14.25,14.24 v 44.87 c 0,7.87 6.38,14.25 14.25,14.25 7.88,0 14.25,-6.38 14.25,-14.25 v -44.87" /><path
         id="path506"
         style="fill:#65686d;fill-opacity:1;fill-rule:nonzero;stroke:none"
         d="m 1539.4,1956.33 c 0,-12.54 -10.25,-22.79 -22.79,-22.79 h -228.35 c -12.54,0 -22.8,10.25 -22.8,22.79 v 165.77 c 0,12.53 10.26,22.78 22.8,22.78 h 228.35 c 12.54,0 22.79,-10.25 22.79,-22.78 z m 0.18,314.41 h -0.37 v -22.42 c 0,-12.58 -10.23,-22.79 -22.79,-22.79 -12.57,0 -22.8,10.21 -22.8,22.79 v 22.42 h -30.39 v -22.42 c 0,-12.58 -10.24,-22.79 -22.81,-22.79 -12.56,0 -22.78,10.21 -22.78,22.79 v 22.42 h -30.4 v -22.42 c 0,-12.58 -10.23,-22.79 -22.81,-22.79 -12.56,0 -22.79,10.21 -22.79,22.79 v 22.42 h -30.39 v -22.42 c 0,-12.58 -10.23,-22.79 -22.8,-22.79 -12.57,0 -22.8,10.21 -22.8,22.79 v 22.42 h -0.36 c -12.54,0 -22.79,-10.26 -22.79,-22.8 v -317.71 c 0,-12.53 10.25,-22.79 22.79,-22.79 h 274.29 c 12.52,0 22.78,10.26 22.78,22.79 v 317.71 c 0,12.54 -10.26,22.8 -22.78,22.8" /><path
         id="path508"
         style="fill:#65686d;fill-opacity:1;fill-rule:nonzero;stroke:none"
         d="m 1530.66,2248.32 c 0,-7.86 -6.37,-14.24 -14.24,-14.24 -7.88,0 -14.25,6.38 -14.25,14.24 v 44.87 c 0,7.87 6.37,14.25 14.25,14.25 7.87,0 14.24,-6.38 14.24,-14.25 v -44.87" /><path
         id="path510"
         style="fill:#65686d;fill-opacity:1;fill-rule:nonzero;stroke:none"
         d="m 1378.69,2248.31 c 0,-7.86 -6.38,-14.25 -14.26,-14.25 -7.86,0 -14.24,6.39 -14.24,14.25 v 44.87 c 0,7.87 6.38,14.24 14.24,14.24 7.88,0 14.26,-6.37 14.26,-14.24 v -44.87" /><path
         id="path512"
         style="fill:#65686d;fill-opacity:1;fill-rule:nonzero;stroke:none"
         d="m 1302.7,2248.29 c 0,-7.86 -6.38,-14.25 -14.25,-14.25 -7.87,0 -14.25,6.39 -14.25,14.25 v 44.86 c 0,7.88 6.38,14.26 14.25,14.26 7.87,0 14.25,-6.38 14.25,-14.26 v -44.86" /><path
         id="path514"
         style="fill:#65686d;fill-opacity:1;fill-rule:nonzero;stroke:none"
         d="m 1339.87,1967.75 v 106.51 c -5.34,-3.49 -11.29,-6.16 -18.06,-7.39 l -2.26,22.16 c 8.82,1.85 22.57,12.51 26.47,22.37 h 20.11 v -143.65 h -26.26" /><path
         id="path516"
         style="fill:#65686d;fill-opacity:1;fill-rule:nonzero;stroke:none"
         d="m 1395.05,1967.75 c 53.15,76.95 57.87,93.58 57.87,104.05 0,12.93 -7.4,20.52 -19.91,20.52 -17.86,0 -28.73,-15.4 -33.04,-21.96 l -3.29,23.6 c 3.9,7.17 18.07,20.32 41.66,20.32 30.18,0 39.4,-21.34 39.4,-38.59 0,-18.67 -10.87,-42.28 -37.54,-82.5 h 42.69 v -25.44 h -87.84" /><path
         id="path518"
         style="fill:#65686d;fill-opacity:1;fill-rule:nonzero;stroke:none"
         d="m 2972.32,1680.48 0.36,0.14 c 8.35,-28.82 26.43,-47.93 47.44,-47.93 h 0.04 0.05 c 20.99,0 39.09,19.11 47.43,47.93 l 0.35,-0.14 c 4.18,-0.75 7.18,6.76 8.86,16.11 1.69,9.37 1.43,17.01 -2.75,17.75 l -1.6,-0.05 0.09,2.58 c 0,28.97 -23.46,52.41 -52.38,52.41 h -0.05 -0.04 c -28.93,0 -52.39,-23.44 -52.39,-52.41 l 0.08,-2.58 -1.58,0.05 c -4.18,-0.74 -4.44,-8.38 -2.76,-17.75 1.69,-9.35 4.67,-16.86 8.85,-16.11" /><path
         id="path520"
         style="fill:#65686d;fill-opacity:1;fill-rule:nonzero;stroke:none"
         d="m 3068.96,1635.87 c -13.2,-15.17 -30.12,-23.81 -48.75,-23.81 h -0.05 c -18.66,0 -35.58,8.64 -48.8,23.81 -65.52,-2.17 -67.1,-66.03 -67.1,-131.29 0,0 28.23,-14.95 115.9,-14.95 87.67,0 115.89,14.95 115.89,14.95 0,65.26 -1.6,129.12 -67.09,131.29" /><path
         id="path522"
         style="fill:#65686d;fill-opacity:1;fill-rule:nonzero;stroke:none"
         d="m 3165.53,1520.71 c 40.38,3.22 54.59,10.66 54.59,10.66 0,52.95 -1.29,104.77 -54.45,106.54 -5.92,-6.79 -12.83,-11.78 -20.3,-15.06 17.1,-29.59 19.77,-69.35 20.16,-102.14" /><path
         id="path524"
         style="fill:#65686d;fill-opacity:1;fill-rule:nonzero;stroke:none"
         d="m 3169.83,1701.6 -1.29,-0.08 0.08,2.12 c 0,23.49 -19.04,42.53 -42.51,42.53 l -0.04,-0.02 -0.03,0.02 c -10.15,0 -19.32,-3.7 -26.63,-9.63 0.63,-2.58 1.48,-5.08 1.86,-7.75 4.96,-7.76 7.86,-19.55 4.68,-37.41 -2.52,-14.07 -7.26,-23.22 -12.65,-29.29 18.24,-4.44 31.89,-13.35 42.11,-24.99 12.94,4.51 23.67,18.13 29.16,37.14 l 0.31,-0.15 c 3.39,-0.58 5.82,5.51 7.18,13.11 1.37,7.59 1.16,13.78 -2.23,14.4" /><path
         id="path526"
         style="fill:#65686d;fill-opacity:1;fill-rule:nonzero;stroke:none"
         d="m 2874.69,1520.71 c -40.37,3.22 -54.57,10.66 -54.57,10.66 0,52.95 1.28,104.77 54.44,106.54 5.93,-6.79 12.83,-11.78 20.28,-15.06 -17.08,-29.59 -19.76,-69.35 -20.15,-102.14" /><path
         id="path528"
         style="fill:#65686d;fill-opacity:1;fill-rule:nonzero;stroke:none"
         d="m 2870.38,1701.6 1.31,-0.08 -0.08,2.12 c 0,23.49 19.04,42.53 42.51,42.53 l 0.04,-0.02 0.04,0.02 c 10.15,0 19.32,-3.7 26.62,-9.63 -0.63,-2.58 -1.47,-5.08 -1.87,-7.75 -4.95,-7.76 -7.87,-19.55 -4.66,-37.41 2.52,-14.07 7.23,-23.22 12.64,-29.29 -18.26,-4.44 -31.9,-13.35 -42.12,-24.99 -12.93,4.51 -23.67,18.13 -29.17,37.14 l -0.3,-0.15 c -3.38,-0.58 -5.83,5.51 -7.19,13.11 -1.35,7.59 -1.16,13.78 2.23,14.4" /><path
         id="path530"
         style="fill:#65686d;fill-opacity:1;fill-rule:nonzero;stroke:none"
         d="m 1879.69,3776.39 0.24,0.1 c 5.06,-17.53 16.05,-29.17 28.83,-29.17 h 0.03 0.03 c 12.78,0 23.78,11.64 28.85,29.17 l 0.22,-0.1 c 2.53,-0.44 4.36,4.13 5.38,9.8 1.02,5.69 0.86,10.34 -1.67,10.8 l -0.97,-0.04 0.04,1.59 c 0,17.58 -14.26,31.85 -31.85,31.85 h -0.03 -0.03 c -17.59,0 -31.85,-14.27 -31.85,-31.85 l 0.05,-1.59 -0.97,0.04 c -2.54,-0.46 -2.7,-5.11 -1.67,-10.8 1.02,-5.67 2.84,-10.24 5.37,-9.8" /><path
         id="path532"
         style="fill:#65686d;fill-opacity:1;fill-rule:nonzero;stroke:none"
         d="m 1936.44,3742.75 -20.62,-32.65 h -3.19 l 0.92,23.37 4.99,5.57 -9.75,-1.08 -9.75,1.08 4.99,-5.57 0.92,-23.37 h -3.19 l -20.61,32.65 c -41.94,0 -42.85,-39.58 -42.85,-79.97 0,0 17.18,-9.09 70.49,-9.09 53.31,0 70.49,9.09 70.49,9.09 0,40.39 -0.91,79.97 -42.84,79.97" /><path
         id="path534"
         style="fill:#65686d;fill-opacity:1;fill-rule:nonzero;stroke:none"
         d="m 1997.51,3642.74 c -48.93,-48.93 -128.51,-48.93 -177.44,-0.01 -48.91,48.92 -48.91,128.52 0.01,177.43 48.92,48.91 128.51,48.93 177.43,0 48.93,-48.91 48.93,-128.51 0,-177.42 z m -198.95,198.95 c -60.86,-60.88 -60.86,-159.59 0.02,-220.47 60.86,-60.87 159.57,-60.88 220.44,0 60.88,60.88 60.87,159.59 0,220.45 -60.87,60.87 -159.58,60.88 -220.46,0.02" /><path
         id="path536"
         style="fill:#65686d;fill-opacity:1;fill-rule:nonzero;stroke:none"
         d="m 2055.32,3603.02 -18.09,-18.1 -30.57,30.57 18.09,18.09 30.57,-30.56" /><path
         id="path538"
         style="fill:#65686d;fill-opacity:1;fill-rule:nonzero;stroke:none"
         d="m 2139.24,3492.29 c -6.61,-6.61 -17.34,-6.62 -23.96,0 l -81.57,81.57 c -6.62,6.6 -6.61,17.33 0,23.96 l 8.72,8.71 c 6.61,6.61 17.34,6.61 23.95,0 l 81.57,-81.57 c 6.63,-6.61 6.63,-17.34 0.01,-23.95 l -8.72,-8.72" /></g></g></svg>
